<svg width="36" height="36" viewBox="0 0 36 36" fill="none" xmlns="http://www.w3.org/2000/svg">
<circle cx="18" cy="18" r="18" fill="#131218"/>
<path d="M21.125 20.75C24.9219 20.75 28 17.6719 28 13.875C28 10.0781 24.9219 7 21.125 7C17.3281 7 14.25 10.0781 14.25 13.875C14.25 14.6055 14.3633 15.3125 14.5742 15.9727L8.27344 22.2734C8.09766 22.4492 8 22.6875 8 22.9375V26.0625C8 26.582 8.41797 27 8.9375 27H12.0625C12.582 27 13 26.582 13 26.0625V24.5H14.5625C15.082 24.5 15.5 24.082 15.5 23.5625V22H17.0625C17.3125 22 17.5508 21.9023 17.7266 21.7266L19.0273 20.4258C19.6875 20.6367 20.3945 20.75 21.125 20.75ZM22.6875 13.875C21.8242 13.875 21.125 13.1758 21.125 12.3125C21.125 11.4492 21.8242 10.75 22.6875 10.75C23.5508 10.75 24.25 11.4492 24.25 12.3125C24.25 13.1758 23.5508 13.875 22.6875 13.875Z" fill="#B9FDB6"/>
</svg>
